<?xml version="1.0"?>
<svg version="1.1" xmlns="http://www.w3.org/2000/svg" width="200" height="36" style=""><path fill="#fdfdfd" d="M15.8935546875,28.13671875q0-1.025390625,0.22705078125-2.4169921875t0.76904296875-2.63671875t1.42822265625-2.11669921875t2.23388671875-0.87158203125q1.259765625,0,1.8896484375,0.72509765625t0.6298828125,1.95556640625q0,0.8056640625-0.30029296875,1.76513671875t-0.85693359375,1.81640625t-1.318359375,1.42822265625t-1.69921875,0.5712890625l-0.380859375-0.029296875q0,0.3955078125,0.1171875,1.06201171875t0.34423828125,1.32568359375t0.5859375,1.1572265625t0.87158203125,0.498046875q0.7470703125,0,1.435546875-0.6005859375t1.3037109375-1.3330078125t1.142578125-1.3330078125t0.966796875-0.6005859375q0.234375,0,0.4833984375,0.0732421875t0.2783203125,0.41015625q0,0.205078125-0.10986328125,0.3369140625t-0.19775390625,0.29296875q-0.4541015625,0.7763671875-0.98876953125,1.4794921875t-1.20849609375,1.2744140625t-1.47216796875,0.90087890625t-1.76513671875,0.32958984375q-1.259765625,0-2.0947265625-0.44677734375t-1.34765625-1.201171875t-0.73974609375-1.7431640625t-0.22705078125-2.07275390625z M18.515625,27.0234375l0.41015625,0.3662109375q0.29296875,0.263671875,0.5859375,0.1171875t0.52734375-0.53466796875t0.43212890625-0.95947265625t0.3515625-1.171875t0.22705078125-1.171875t0.0732421875-0.9521484375l0-0.498046875t-0.0439453125-0.52734375t-0.15380859375-0.41748046875t-0.34423828125-0.21240234375q-0.0732421875-0.0146484375-0.1318359375-0.0146484375q-0.498046875,0-0.849609375,0.6298828125q-0.380859375,0.703125-0.615234375,1.70654296875t-0.3369140625,2.05810546875t-0.1318359375,1.58203125z M28.735400390625,25.79296875q0-0.29296875,0.79833984375-0.439453125t1.875-0.21240234375t2.23388671875-0.05126953125t1.875,0.0146484375q0.3662109375,0,0.85693359375,0.13916015625t0.49072265625,0.46142578125q0,0.263671875-0.234375,0.38818359375t-0.54931640625,0.18310546875t-0.615234375,0.05859375l-0.38818359375,0q-1.025390625,0-1.92626953125-0.0439453125t-1.86767578125-0.0439453125q-0.29296875,0-0.59326171875,0.029296875t-0.56396484375,0.029296875l-0.41748046875,0t-0.4541015625-0.0439453125t-0.3662109375-0.146484375t-0.15380859375-0.322265625z M40.46396484375,27.2431640625q0-1.0546875,0.27099609375-2.11669921875t0.84228515625-1.904296875t1.45751953125-1.36962890625t2.08740234375-0.52734375q0.5126953125,0,1.1279296875,0.12451171875t1.13525390625,0.3955078125t0.87890625,0.703125t0.35888671875,1.06201171875q0,0.3955078125-0.205078125,0.52734375t-0.5419921875,0.1318359375l-0.1025390625-0.146484375t-0.28564453125-0.37353515625t-0.38818359375-0.4833984375t-0.3955078125-0.43212890625q-0.6005859375-0.6005859375-1.1279296875-0.64453125l-0.1171875,0q-0.439453125,0-0.8203125,0.263671875q-0.4248046875,0.322265625-0.75439453125,0.908203125t-0.54931640625,1.2451171875t-0.34423828125,1.3330078125t-0.12451171875,1.11328125q0,0.6005859375,0.13916015625,1.36962890625t0.46875,1.45751953125t0.8349609375,1.1572265625t1.29638671875,0.46875q0.7177734375,0,1.3037109375-0.3515625t1.12060546875-0.78369140625t1.04736328125-0.7763671875t1.0546875-0.34423828125q0.234375,0,0.47607421875,0.05859375t0.24169921875,0.3076171875l0,0.087890625q-0.263671875,0.6884765625-0.8935546875,1.2158203125t-1.41357421875,0.91552734375t-1.6259765625,0.57861328125t-1.50146484375,0.1904296875q-1.23046875,0-2.16064453125-0.40283203125t-1.54541015625-1.10595703125t-0.93017578125-1.69189453125t-0.31494140625-2.16064453125z M52.954248046875,27.814453125q0-0.8349609375,0.21240234375-1.72119140625t0.673828125-1.5966796875t1.16455078125-1.1572265625t1.69921875-0.44677734375q0.7470703125,0,1.57470703125,0.25634765625t1.51611328125,0.732421875t1.12060546875,1.16455078125t0.43212890625,1.5380859375q0,1.025390625-0.37353515625,1.9482421875t-1.04736328125,1.64794921875t-1.57470703125,1.142578125t-1.95556640625,0.41748046875q-0.8642578125,0-1.5087890625-0.31494140625t-1.07666015625-0.84228515625t-0.64453125-1.2451171875t-0.21240234375-1.5234375z M55.107568359375,27.78515625q0,0.263671875,0.08056640625,0.7763671875t0.24169921875,1.00341796875t0.41748046875,0.849609375t0.62255859375,0.32958984375q0.7763671875-0.087890625,1.28173828125-0.50537109375t0.8203125-1.01806640625t0.439453125-1.3037109375t0.12451171875-1.3330078125q0-0.8056640625-0.31494140625-1.34765625t-1.03271484375-0.87890625q0,0.029296875,0.029296875,0.029296875t0.029296875-0.029296875l-0.3662109375-0.087890625q-0.146484375-0.05859375-0.35888671875-0.1318359375t-0.41748046875-0.322265625q-0.5712890625,0.205078125-0.88623046875,0.52734375t-0.47607421875,0.78369140625t-0.19775390625,1.10595703125t-0.03662109375,1.552734375z M64.08955078125,23.86669921875q-0.03662109375-0.49072265625,0.05859375-0.90087890625t0.380859375-0.66650390625t0.91552734375-0.25634765625q0.146484375,0,0.35888671875,0.03662109375t0.41748046875,0.09521484375t0.34423828125,0.17578125t0.13916015625,0.322265625l0,1.6552734375q0.5712890625-0.6591796875,1.2451171875-0.94482421875t1.5380859375-0.28564453125q0.6591796875,0,1.3037109375,0.30029296875t1.2158203125,0.79833984375t0.98876953125,1.0986328125t0.60791015625,1.201171875q0.1171875-0.5419921875,0.263671875-1.32568359375t0.43212890625-1.50146484375t0.75439453125-1.23046875t1.2451171875-0.5126953125q0.8349609375,0,1.40625,0.6005859375t0.93017578125,1.56005859375t0.5419921875,2.14599609375t0.27099609375,2.34375t0.087890625,2.16064453125l0,1.57470703125q0,0.17578125-0.1318359375,0.28564453125t-0.32958984375,0.16845703125t-0.41015625,0.0732421875t-0.32958984375,0.0146484375q-0.4541015625,0-0.82763671875-0.13916015625t-0.37353515625-0.71044921875l0-1.318359375t-0.029296875-1.70654296875t-0.1025390625-1.8310546875t-0.1904296875-1.66259765625t-0.30029296875-1.201171875t-0.44677734375-0.46875q-0.3662109375,0-0.52734375,0.41015625t-0.27099609375,1.0400390625t-0.16845703125,1.3330078125t-0.1611328125,1.3330078125t-0.32958984375,1.03271484375t-0.62255859375,0.40283203125q-0.4248046875,0-0.7470703125-0.40283203125t-0.63720703125-1.00341796875t-0.6298828125-1.2890625t-0.69580078125-1.2890625q-0.380859375-0.615234375-0.8203125-0.99609375q-0.3955078125-0.3662109375-0.8935546875-0.3515625l-0.0732421875,0q-0.6591796875,0.029296875-1.03271484375,0.47607421875t-0.5712890625,1.09130859375t-0.24169921875,1.38427734375t-0.0439453125,1.29638671875q0,0.52734375,0.087890625,1.23046875q0.05859375,0.46875,0.05859375,0.8935546875q0,0.2197265625-0.0146484375,0.4248046875q-0.0439453125,0.615234375-0.32958984375,1.03271484375t-1.06201171875,0.41748046875q-0.29296875,0-0.732421875-0.05859375t-0.5859375-0.3955078125q-0.3369140625-0.6005859375-0.5126953125-1.51611328125t-0.263671875-1.8896484375t-0.1025390625-1.93359375t-0.0146484375-1.64794921875q0-0.4833984375-0.03662109375-0.97412109375z M82.600341796875,23.86669921875q-0.03662109375-0.49072265625,0.05859375-0.90087890625t0.380859375-0.66650390625t0.91552734375-0.25634765625q0.146484375,0,0.35888671875,0.03662109375t0.41748046875,0.09521484375t0.34423828125,0.17578125t0.13916015625,0.322265625l0,1.6552734375q0.5712890625-0.6591796875,1.2451171875-0.94482421875t1.5380859375-0.28564453125q0.6591796875,0,1.3037109375,0.30029296875t1.2158203125,0.79833984375t0.98876953125,1.0986328125t0.60791015625,1.201171875q0.1171875-0.5419921875,0.263671875-1.32568359375t0.43212890625-1.50146484375t0.75439453125-1.23046875t1.2451171875-0.5126953125q0.8349609375,0,1.40625,0.6005859375t0.93017578125,1.56005859375t0.5419921875,2.14599609375t0.27099609375,2.34375t0.087890625,2.16064453125l0,1.57470703125q0,0.17578125-0.1318359375,0.28564453125t-0.32958984375,0.16845703125t-0.41015625,0.0732421875t-0.32958984375,0.0146484375q-0.4541015625,0-0.82763671875-0.13916015625t-0.37353515625-0.71044921875l0-1.318359375t-0.029296875-1.70654296875t-0.1025390625-1.8310546875t-0.1904296875-1.66259765625t-0.30029296875-1.201171875t-0.44677734375-0.46875q-0.3662109375,0-0.52734375,0.41015625t-0.27099609375,1.0400390625t-0.16845703125,1.3330078125t-0.1611328125,1.3330078125t-0.32958984375,1.03271484375t-0.62255859375,0.40283203125q-0.4248046875,0-0.7470703125-0.40283203125t-0.63720703125-1.00341796875t-0.6298828125-1.2890625t-0.69580078125-1.2890625q-0.380859375-0.615234375-0.8203125-0.99609375q-0.3955078125-0.3662109375-0.8935546875-0.3515625l-0.0732421875,0q-0.6591796875,0.029296875-1.03271484375,0.47607421875t-0.5712890625,1.09130859375t-0.24169921875,1.38427734375t-0.0439453125,1.29638671875q0,0.52734375,0.087890625,1.23046875q0.05859375,0.46875,0.05859375,0.8935546875q0,0.2197265625-0.0146484375,0.4248046875q-0.0439453125,0.615234375-0.32958984375,1.03271484375t-1.06201171875,0.41748046875q-0.29296875,0-0.732421875-0.05859375t-0.5859375-0.3955078125q-0.3369140625-0.6005859375-0.5126953125-1.51611328125t-0.263671875-1.8896484375t-0.1025390625-1.93359375t-0.0146484375-1.64794921875q0-0.4833984375-0.03662109375-0.97412109375z M101.07451171875,28.13671875q0-1.025390625,0.22705078125-2.4169921875t0.76904296875-2.63671875t1.42822265625-2.11669921875t2.23388671875-0.87158203125q1.259765625,0,1.8896484375,0.72509765625t0.6298828125,1.95556640625q0,0.8056640625-0.30029296875,1.76513671875t-0.85693359375,1.81640625t-1.318359375,1.42822265625t-1.69921875,0.5712890625l-0.380859375-0.029296875q0,0.3955078125,0.1171875,1.06201171875t0.34423828125,1.32568359375t0.5859375,1.1572265625t0.87158203125,0.498046875q0.7470703125,0,1.435546875-0.6005859375t1.3037109375-1.3330078125t1.142578125-1.3330078125t0.966796875-0.6005859375q0.234375,0,0.4833984375,0.0732421875t0.2783203125,0.41015625q0,0.205078125-0.10986328125,0.3369140625t-0.19775390625,0.29296875q-0.4541015625,0.7763671875-0.98876953125,1.4794921875t-1.20849609375,1.2744140625t-1.47216796875,0.90087890625t-1.76513671875,0.32958984375q-1.259765625,0-2.0947265625-0.44677734375t-1.34765625-1.201171875t-0.73974609375-1.7431640625t-0.22705078125-2.07275390625z M103.69658203125,27.0234375l0.41015625,0.3662109375q0.29296875,0.263671875,0.5859375,0.1171875t0.52734375-0.53466796875t0.43212890625-0.95947265625t0.3515625-1.171875t0.22705078125-1.171875t0.0732421875-0.9521484375l0-0.498046875t-0.0439453125-0.52734375t-0.15380859375-0.41748046875t-0.34423828125-0.21240234375q-0.0732421875-0.0146484375-0.1318359375-0.0146484375q-0.498046875,0-0.849609375,0.6298828125q-0.380859375,0.703125-0.615234375,1.70654296875t-0.3369140625,2.05810546875t-0.1318359375,1.58203125z M113.31577148438,23.4345703125q0-0.6005859375,0.21240234375-1.0107421875t0.90087890625-0.41015625q0.263671875,0,0.6591796875,0.08056640625t0.4541015625,0.40283203125q0.146484375,0.8642578125,0.1611328125,1.875t0.1025390625,1.904296875q0.3369140625-0.6591796875,0.8642578125-1.4208984375t1.201171875-1.40625t1.46484375-1.0693359375t1.611328125-0.4248046875q0.05859375,0,0.2197265625,0.0439453125t0.30029296875,0.12451171875t0.16845703125,0.18310546875t-0.1611328125,0.1904296875q-0.05859375,0.17578125-0.2490234375,0.21240234375t-0.3369140625,0.03662109375q-0.087890625,0-0.2783203125-0.0732421875q-1.083984375,0.5712890625-1.845703125,1.552734375t-1.2451171875,2.17529296875t-0.703125,2.51953125t-0.2197265625,2.58544921875q0,0.6298828125-0.28564453125,0.76171875t-0.91552734375,0.1318359375q-0.3369140625,0-0.71044921875-0.0732421875t-0.52001953125-0.46875q-0.263671875-0.8349609375-0.43212890625-1.9189453125t-0.25634765625-2.23388671875t-0.12451171875-2.26318359375t-0.03662109375-2.0068359375z M123.7259765625,27.2431640625q0-1.0546875,0.27099609375-2.11669921875t0.84228515625-1.904296875t1.45751953125-1.36962890625t2.08740234375-0.52734375q0.5126953125,0,1.1279296875,0.12451171875t1.13525390625,0.3955078125t0.87890625,0.703125t0.35888671875,1.06201171875q0,0.3955078125-0.205078125,0.52734375t-0.5419921875,0.1318359375l-0.1025390625-0.146484375t-0.28564453125-0.37353515625t-0.38818359375-0.4833984375t-0.3955078125-0.43212890625q-0.6005859375-0.6005859375-1.1279296875-0.64453125l-0.1171875,0q-0.439453125,0-0.8203125,0.263671875q-0.4248046875,0.322265625-0.75439453125,0.908203125t-0.54931640625,1.2451171875t-0.34423828125,1.3330078125t-0.12451171875,1.11328125q0,0.6005859375,0.13916015625,1.36962890625t0.46875,1.45751953125t0.8349609375,1.1572265625t1.29638671875,0.46875q0.7177734375,0,1.3037109375-0.3515625t1.12060546875-0.78369140625t1.04736328125-0.7763671875t1.0546875-0.34423828125q0.234375,0,0.47607421875,0.05859375t0.24169921875,0.3076171875l0,0.087890625q-0.263671875,0.6884765625-0.8935546875,1.2158203125t-1.41357421875,0.91552734375t-1.6259765625,0.57861328125t-1.50146484375,0.1904296875q-1.23046875,0-2.16064453125-0.40283203125t-1.54541015625-1.10595703125t-0.93017578125-1.69189453125t-0.31494140625-2.16064453125z M136.50922851563,28.13671875q0-1.025390625,0.22705078125-2.4169921875t0.76904296875-2.63671875t1.42822265625-2.11669921875t2.23388671875-0.87158203125q1.259765625,0,1.8896484375,0.72509765625t0.6298828125,1.95556640625q0,0.8056640625-0.30029296875,1.76513671875t-0.85693359375,1.81640625t-1.318359375,1.42822265625t-1.69921875,0.5712890625l-0.380859375-0.029296875q0,0.3955078125,0.1171875,1.06201171875t0.34423828125,1.32568359375t0.5859375,1.1572265625t0.87158203125,0.498046875q0.7470703125,0,1.435546875-0.6005859375t1.3037109375-1.3330078125t1.142578125-1.3330078125t0.966796875-0.6005859375q0.234375,0,0.4833984375,0.0732421875t0.2783203125,0.41015625q0,0.205078125-0.10986328125,0.3369140625t-0.19775390625,0.29296875q-0.4541015625,0.7763671875-0.98876953125,1.4794921875t-1.20849609375,1.2744140625t-1.47216796875,0.90087890625t-1.76513671875,0.32958984375q-1.259765625,0-2.0947265625-0.44677734375t-1.34765625-1.201171875t-0.73974609375-1.7431640625t-0.22705078125-2.07275390625z M139.13129882813,27.0234375l0.41015625,0.3662109375q0.29296875,0.263671875,0.5859375,0.1171875t0.52734375-0.53466796875t0.43212890625-0.95947265625t0.3515625-1.171875t0.22705078125-1.171875t0.0732421875-0.9521484375l0-0.498046875t-0.0439453125-0.52734375t-0.15380859375-0.41748046875t-0.34423828125-0.21240234375q-0.0732421875-0.0146484375-0.1318359375-0.0146484375q-0.498046875,0-0.849609375,0.6298828125q-0.380859375,0.703125-0.615234375,1.70654296875t-0.3369140625,2.05810546875t-0.1318359375,1.58203125z"/><path fill="#" d=""/></svg>
